# xmcd
#
# Track frame offsets:
#	150
#	20062
#	43004
#	62397
#	77241
#	91326
#	110283
#	126102
#	147662
#	163558
#	184946
#	208062
#	232512
#	252944
#	271105
#	293071
#	312694
#	332667
#
# Disc length: 4702 seconds
#
# Revision: 0
# Processed by: cddbd v1.5.2PL0 Copyright (c) Steve Scherf et al.
# Submitted via: EasyCDDAExtractor 2010.4.0.0
#
DISCID=00125c12
DTITLE=Jeffrey Osborne - Love Songs
DYEAR=2001
DGENRE=R&B
TTITLE0=Eenie Meenie
TTITLE1=Greatest Love Affair
TTITLE2=We're Going All the Way
TTITLE3=In Your Eyes
TTITLE4=We Both Deserve Each Other's Love
TTITLE5=True Believers
TTITLE6=My Heart Can Wait Forever
TTITLE7=Concentrate on You
TTITLE8=Crazy 'Bout 'Cha
TTITLE9=Getting Better All the Time
TTITLE10=I'll Make Believe
TTITLE11=Let Me Know
TTITLE12=Love Ballad
TTITLE13=On the Wings of Love
TTITLE14=Only Human
TTITLE15=Share My Love
TTITLE16=That's for Sure
TTITLE17=You Should Be Mine (The Woo Woo Song)
EXTD=
EXTT0=
EXTT1=
EXTT2=
EXTT3=
EXTT4=
EXTT5=
EXTT6=
EXTT7=
EXTT8=
EXTT9=
EXTT10=
EXTT11=
EXTT12=
EXTT13=
EXTT14=
EXTT15=
EXTT16=
EXTT17=
PLAYORDER=
